<svg width="308" height="278" version="1.1" xmlns="http://www.w3.org/2000/svg" desc="Created with imagetracer.js version 1.2.6" ><path fill="rgb(0,0,0)" stroke="rgb(0,0,0)" stroke-width="1" opacity="1" d="M 0 0 L 308 0 L 308 278 L 0 278 L 0 0 Z M 152 45 L 34 75 L 32 78 L 36 80 L 92 94 L 105 90 L 122 87 L 129 87 L 130 86 L 170 86 L 171 87 L 180 88 L 146 88 L 145 89 L 128 90 L 114 93 L 91 100 L 91 118 L 93 119 L 119 113 L 133 112 L 134 111 L 145 111 L 146 110 L 169 110 L 170 111 L 190 112 L 221 119 L 222 118 L 222 95 L 224 93 L 247 88 L 247 131 L 245 131 L 245 142 L 253 142 L 253 132 L 251 131 L 251 86 L 280 79 Q 282 80 281 77 L 278 74 L 175 49 L 167 46 L 152 45 Z M 237 151 L 231 154 L 227 160 Q 226 168 229 172 L 234 175 L 246 180 Q 249 181 248 188 L 243 191 L 236 189 L 232 184 L 227 187 L 225 190 Q 229 196 237 198 Q 248 200 253 195 L 257 188 Q 258 181 255 178 Q 250 171 240 169 L 235 165 L 236 161 L 240 158 L 243 158 L 250 162 L 254 157 Q 250 149 237 151 Z M 60 152 L 60 197 L 61 197 L 68 197 L 69 166 L 90 195 L 93 197 L 101 197 L 101 153 L 101 152 L 92 152 L 92 182 L 70 154 L 69 152 L 60 152 Z M 110 152 L 110 197 L 137 197 L 137 190 L 119 190 L 119 178 L 135 178 L 135 171 L 119 171 L 119 159 L 137 159 L 137 153 L 137 152 L 110 152 Z M 141 152 L 154 173 L 154 176 L 139 197 L 149 197 L 160 181 L 169 196 L 170 197 L 179 197 L 164 175 L 179 153 L 170 152 L 160 167 L 151 154 L 150 152 L 141 152 Z M 183 152 L 183 187 L 186 193 L 196 198 Q 208 200 214 195 Q 219 191 220 184 L 220 153 L 220 152 L 211 152 L 211 185 L 210 187 L 204 191 L 197 190 L 191 183 L 191 153 L 191 152 L 183 152 Z M 203 202 L 203 204 L 208 204 L 208 202 L 203 202 Z M 82 205 L 82 216 L 90 216 L 85 215 Q 83 210 88 211 L 88 210 Q 83 211 85 206 L 89 206 L 82 205 Z M 101 205 L 101 216 L 108 216 Q 112 215 110 208 Q 108 203 101 205 Z M 122 205 L 122 214 L 125 216 Q 130 217 131 214 L 131 206 L 129 205 L 129 213 L 127 215 L 124 212 Q 126 204 122 205 Z M 146 205 Q 142 207 143 214 Q 144 217 151 216 L 150 214 L 148 215 Q 144 214 145 209 L 149 206 Q 150 208 151 206 L 146 205 Z M 165 205 L 162 214 Q 161 217 164 216 L 166 213 L 169 215 Q 168 217 171 216 L 168 208 Q 169 203 165 205 Z M 185 205 L 182 209 L 183 215 L 187 218 L 185 219 L 189 219 L 188 217 L 190 216 L 190 214 L 185 214 L 184 212 L 187 206 L 190 207 Q 191 203 185 205 Z M 204 205 L 201 215 Q 200 217 203 216 L 205 213 L 208 215 Q 207 217 210 216 L 207 207 Q 208 203 204 205 Z M 223 205 L 221 210 L 222 215 Q 223 217 229 216 Q 233 215 231 208 Q 229 204 223 205 Z " /><path fill="rgb(0,0,0)" stroke="rgb(0,0,0)" stroke-width="1" opacity="1" d="M 185.5 88 L 188 88.5 L 185.5 89 L 185.5 88 Z " /><path fill="rgb(0,0,0)" stroke="rgb(0,0,0)" stroke-width="1" opacity="1" d="M 104 206 L 108 208.5 Q 109 214 105.5 215 L 104 214.5 L 104 206 Z " /><path fill="rgb(0,0,0)" stroke="rgb(0,0,0)" stroke-width="1" opacity="1" d="M 226.5 206 Q 230 207 229 212.5 Q 227.3 216.8 225.5 214 Q 222.8 214.6 224 208.5 L 226.5 206 Z " /><path fill="rgb(0,0,0)" stroke="rgb(0,0,0)" stroke-width="1" opacity="1" d="M 166.5 209 L 167 212 L 165 211.5 L 166.5 209 Z " /><path fill="rgb(0,0,0)" stroke="rgb(0,0,0)" stroke-width="1" opacity="1" d="M 205.5 209 L 207 211.5 L 205 212 L 205.5 209 Z " /><path fill="rgb(234,235,234)" stroke="rgb(234,235,234)" stroke-width="1" opacity="1" d="M 134.5 85 L 137 85.5 L 134.5 86 L 134.5 85 Z " /><path fill="rgb(234,235,234)" stroke="rgb(234,235,234)" stroke-width="1" opacity="1" d="M 160.5 85 L 166 85.5 L 160.5 86 L 160.5 85 Z " /><path fill="rgb(234,235,234)" stroke="rgb(234,235,234)" stroke-width="1" opacity="1" d="M 174.5 86 L 177 86.5 L 174.5 87 L 174.5 86 Z " /><path fill="rgb(234,235,234)" stroke="rgb(234,235,234)" stroke-width="1" opacity="1" d="M 247.5 87 L 248 130.5 L 246 131.5 L 247 130.5 L 247.5 87 Z " /><path fill="rgb(234,235,234)" stroke="rgb(234,235,234)" stroke-width="1" opacity="1" d="M 150.5 88 L 153 88.5 L 150.5 89 L 150.5 88 Z " /><path fill="rgb(234,235,234)" stroke="rgb(234,235,234)" stroke-width="1" opacity="1" d="M 152.5 109 L 161 109.5 L 152.5 110 L 152.5 109 Z " /><path fill="rgb(234,235,234)" stroke="rgb(234,235,234)" stroke-width="1" opacity="1" d="M 126.5 111 L 129 111.5 L 126.5 112 L 126.5 111 Z " /><path fill="rgb(234,235,234)" stroke="rgb(234,235,234)" stroke-width="1" opacity="1" d="M 245.5 133 L 246 140.5 L 245 140.5 L 245.5 133 Z " /><path fill="rgb(234,235,234)" stroke="rgb(234,235,234)" stroke-width="1" opacity="1" d="M 242.5 151 L 245 151.5 L 242.5 152 L 242.5 151 Z " /><path fill="rgb(234,235,234)" stroke="rgb(234,235,234)" stroke-width="1" opacity="1" d="M 60.5 152 L 61 196.5 L 60 196.5 L 60.5 152 Z " /><path fill="rgb(234,235,234)" stroke="rgb(234,235,234)" stroke-width="1" opacity="1" d="M 93.5 152 L 94 184.5 L 93 184.5 L 93.5 152 Z " /><path fill="rgb(234,235,234)" stroke="rgb(234,235,234)" stroke-width="1" opacity="1" d="M 136.5 152 L 137 157.5 L 135.5 159 L 118 159 L 117.5 171 L 117 159.5 L 118.5 158 L 136 158 L 136.5 152 Z " /><path fill="rgb(234,235,234)" stroke="rgb(234,235,234)" stroke-width="1" opacity="1" d="M 183.5 152 L 184 184.5 L 183 184.5 L 183.5 152 Z " /><path fill="rgb(234,235,234)" stroke="rgb(234,235,234)" stroke-width="1" opacity="1" d="M 190.5 152 L 191 183.5 L 190 183.5 L 190.5 152 Z " /><path fill="rgb(234,235,234)" stroke="rgb(234,235,234)" stroke-width="1" opacity="1" d="M 218.5 152 L 219 185.5 L 218 185.5 L 218.5 152 Z " /><path fill="rgb(234,235,234)" stroke="rgb(234,235,234)" stroke-width="1" opacity="1" d="M 68.5 153 L 69.5 155 L 68.5 153 Z " /><path fill="rgb(234,235,234)" stroke="rgb(234,235,234)" stroke-width="1" opacity="1" d="M 149.5 153 L 150.5 155 L 149.5 153 Z " /><path fill="rgb(234,235,234)" stroke="rgb(234,235,234)" stroke-width="1" opacity="1" d="M 232.5 153 L 229.5 157 L 232.5 153 Z " /><path fill="rgb(234,235,234)" stroke="rgb(234,235,234)" stroke-width="1" opacity="1" d="M 168.5 154 L 167.5 156 L 168.5 154 Z " /><path fill="rgb(234,235,234)" stroke="rgb(234,235,234)" stroke-width="1" opacity="1" d="M 151.5 156 L 152.5 158 L 151.5 156 Z " /><path fill="rgb(234,235,234)" stroke="rgb(234,235,234)" stroke-width="1" opacity="1" d="M 71.5 157 L 72.5 159 L 71.5 157 Z " /><path fill="rgb(234,235,234)" stroke="rgb(234,235,234)" stroke-width="1" opacity="1" d="M 166.5 157 L 165.5 159 L 166.5 157 Z " /><path fill="rgb(234,235,234)" stroke="rgb(234,235,234)" stroke-width="1" opacity="1" d="M 153.5 159 L 154.5 161 L 153.5 159 Z " /><path fill="rgb(234,235,234)" stroke="rgb(234,235,234)" stroke-width="1" opacity="1" d="M 246.5 159 L 247.5 161 L 246.5 159 Z " /><path fill="rgb(234,235,234)" stroke="rgb(234,235,234)" stroke-width="1" opacity="1" d="M 74.5 161 L 75.5 163 L 74.5 161 Z " /><path fill="rgb(234,235,234)" stroke="rgb(234,235,234)" stroke-width="1" opacity="1" d="M 171.5 161 L 170.5 163 L 171.5 161 Z " /><path fill="rgb(234,235,234)" stroke="rgb(234,235,234)" stroke-width="1" opacity="1" d="M 227.5 161 L 228 165.5 L 227 165.5 L 227.5 161 Z " /><path fill="rgb(234,235,234)" stroke="rgb(234,235,234)" stroke-width="1" opacity="1" d="M 234.5 161 L 235 164.5 L 234 164.5 L 234.5 161 Z " /><path fill="rgb(234,235,234)" stroke="rgb(234,235,234)" stroke-width="1" opacity="1" d="M 67 164 L 71 166.5 L 68 165.5 L 67.5 197 L 67 164 Z " /><path fill="rgb(234,235,234)" stroke="rgb(234,235,234)" stroke-width="1" opacity="1" d="M 169.5 164 L 168.5 166 L 169.5 164 Z " /><path fill="rgb(234,235,234)" stroke="rgb(234,235,234)" stroke-width="1" opacity="1" d="M 77.5 165 L 78.5 167 L 77.5 165 Z " /><path fill="rgb(234,235,234)" stroke="rgb(234,235,234)" stroke-width="1" opacity="1" d="M 161.5 165 L 159.5 168 L 158 167.5 L 161.5 165 Z " /><path fill="rgb(234,235,234)" stroke="rgb(234,235,234)" stroke-width="1" opacity="1" d="M 150.5 166 L 151.5 168 L 150.5 166 Z " /><path fill="rgb(234,235,234)" stroke="rgb(234,235,234)" stroke-width="1" opacity="1" d="M 235.5 166 L 236.5 168 L 235.5 166 Z " /><path fill="rgb(234,235,234)" stroke="rgb(234,235,234)" stroke-width="1" opacity="1" d="M 167.5 167 L 166.5 169 L 167.5 167 Z " /><path fill="rgb(234,235,234)" stroke="rgb(234,235,234)" stroke-width="1" opacity="1" d="M 72.5 169 L 73.5 171 L 72.5 169 Z " /><path fill="rgb(234,235,234)" stroke="rgb(234,235,234)" stroke-width="1" opacity="1" d="M 80.5 169 L 81.5 171 L 80.5 169 Z " /><path fill="rgb(234,235,234)" stroke="rgb(234,235,234)" stroke-width="1" opacity="1" d="M 152.5 169 L 153.5 171 L 152.5 169 Z " /><path fill="rgb(234,235,234)" stroke="rgb(234,235,234)" stroke-width="1" opacity="1" d="M 165.5 170 L 164.5 172 L 165.5 170 Z " /><path fill="rgb(234,235,234)" stroke="rgb(234,235,234)" stroke-width="1" opacity="1" d="M 229.5 170 L 231.5 173 L 229.5 170 Z " /><path fill="rgb(234,235,234)" stroke="rgb(234,235,234)" stroke-width="1" opacity="1" d="M 133.5 171 L 134 178 L 118 178 L 118 190 L 135.5 190 L 137 191.5 L 136.5 197 L 136 191 L 118.5 191 L 117 189.5 L 117 178.5 L 118.5 177 L 133 177 L 133.5 171 Z " /><path fill="rgb(234,235,234)" stroke="rgb(234,235,234)" stroke-width="1" opacity="1" d="M 154.5 172 L 156 174.5 L 154 175.5 L 155 173.5 L 154.5 172 Z " /><path fill="rgb(234,235,234)" stroke="rgb(234,235,234)" stroke-width="1" opacity="1" d="M 75.5 173 L 76.5 175 L 75.5 173 Z " /><path fill="rgb(234,235,234)" stroke="rgb(234,235,234)" stroke-width="1" opacity="1" d="M 83.5 173 L 84.5 175 L 83.5 173 Z " /><path fill="rgb(234,235,234)" stroke="rgb(234,235,234)" stroke-width="1" opacity="1" d="M 164.5 176 L 165.5 178 L 164.5 176 Z " /><path fill="rgb(234,235,234)" stroke="rgb(234,235,234)" stroke-width="1" opacity="1" d="M 78.5 177 L 79.5 179 L 78.5 177 Z " /><path fill="rgb(234,235,234)" stroke="rgb(234,235,234)" stroke-width="1" opacity="1" d="M 86.5 177 L 88.5 180 L 86.5 177 Z " /><path fill="rgb(234,235,234)" stroke="rgb(234,235,234)" stroke-width="1" opacity="1" d="M 153.5 177 L 152.5 179 L 153.5 177 Z " /><path fill="rgb(234,235,234)" stroke="rgb(234,235,234)" stroke-width="1" opacity="1" d="M 253.5 177 L 254.5 179 L 253.5 177 Z " /><path fill="rgb(234,235,234)" stroke="rgb(234,235,234)" stroke-width="1" opacity="1" d="M 166.5 179 L 167.5 181 L 166.5 179 Z " /><path fill="rgb(234,235,234)" stroke="rgb(234,235,234)" stroke-width="1" opacity="1" d="M 151.5 180 L 150.5 182 L 151.5 180 Z " /><path fill="rgb(234,235,234)" stroke="rgb(234,235,234)" stroke-width="1" opacity="1" d="M 158.5 180 L 161 181.5 L 159.5 181 L 158.5 180 Z " /><path fill="rgb(234,235,234)" stroke="rgb(234,235,234)" stroke-width="1" opacity="1" d="M 255.5 180 L 256 182.5 L 255 182.5 L 255.5 180 Z " /><path fill="rgb(234,235,234)" stroke="rgb(234,235,234)" stroke-width="1" opacity="1" d="M 81.5 181 L 82.5 183 L 81.5 181 Z " /><path fill="rgb(234,235,234)" stroke="rgb(234,235,234)" stroke-width="1" opacity="1" d="M 89.5 181 L 91.5 184 L 89.5 181 Z " /><path fill="rgb(234,235,234)" stroke="rgb(234,235,234)" stroke-width="1" opacity="1" d="M 168.5 182 L 169.5 184 L 168.5 182 Z " /><path fill="rgb(234,235,234)" stroke="rgb(234,235,234)" stroke-width="1" opacity="1" d="M 149.5 183 L 148.5 185 L 149.5 183 Z " /><path fill="rgb(234,235,234)" stroke="rgb(234,235,234)" stroke-width="1" opacity="1" d="M 84.5 185 L 85.5 187 L 84.5 185 Z " /><path fill="rgb(234,235,234)" stroke="rgb(234,235,234)" stroke-width="1" opacity="1" d="M 147.5 186 L 146.5 188 L 147.5 186 Z " /><path fill="rgb(234,235,234)" stroke="rgb(234,235,234)" stroke-width="1" opacity="1" d="M 163.5 186 L 164.5 188 L 163.5 186 Z " /><path fill="rgb(234,235,234)" stroke="rgb(234,235,234)" stroke-width="1" opacity="1" d="M 228.5 186 L 227.5 188 L 228.5 186 Z " /><path fill="rgb(234,235,234)" stroke="rgb(234,235,234)" stroke-width="1" opacity="1" d="M 232.5 186 L 235.5 190 L 232.5 186 Z " /><path fill="rgb(234,235,234)" stroke="rgb(234,235,234)" stroke-width="1" opacity="1" d="M 255.5 186 L 256 188.5 L 255 188.5 L 255.5 186 Z " /><path fill="rgb(234,235,234)" stroke="rgb(234,235,234)" stroke-width="1" opacity="1" d="M 154.5 187 L 153.5 189 L 154.5 187 Z " /><path fill="rgb(234,235,234)" stroke="rgb(234,235,234)" stroke-width="1" opacity="1" d="M 192.5 187 L 194.5 190 L 192.5 187 Z " /><path fill="rgb(234,235,234)" stroke="rgb(234,235,234)" stroke-width="1" opacity="1" d="M 87.5 189 L 88.5 191 L 87.5 189 Z " /><path fill="rgb(234,235,234)" stroke="rgb(234,235,234)" stroke-width="1" opacity="1" d="M 165.5 189 L 166.5 191 L 165.5 189 Z " /><path fill="rgb(234,235,234)" stroke="rgb(234,235,234)" stroke-width="1" opacity="1" d="M 152.5 190 L 151.5 192 L 152.5 190 Z " /><path fill="rgb(234,235,234)" stroke="rgb(234,235,234)" stroke-width="1" opacity="1" d="M 216.5 190 L 212.5 195 L 216.5 190 Z " /><path fill="rgb(234,235,234)" stroke="rgb(234,235,234)" stroke-width="1" opacity="1" d="M 186.5 191 L 188.5 194 L 186.5 191 Z " /><path fill="rgb(234,235,234)" stroke="rgb(234,235,234)" stroke-width="1" opacity="1" d="M 227.5 191 L 229.5 194 L 227.5 191 Z " /><path fill="rgb(234,235,234)" stroke="rgb(234,235,234)" stroke-width="1" opacity="1" d="M 167.5 192 L 168.5 194 L 167.5 192 Z " /><path fill="rgb(234,235,234)" stroke="rgb(234,235,234)" stroke-width="1" opacity="1" d="M 253.5 192 L 251.5 195 L 253.5 192 Z " /><path fill="rgb(234,235,234)" stroke="rgb(234,235,234)" stroke-width="1" opacity="1" d="M 90.5 193 L 91.5 195 L 90.5 193 Z " /><path fill="rgb(234,235,234)" stroke="rgb(234,235,234)" stroke-width="1" opacity="1" d="M 150.5 193 L 149.5 195 L 150.5 193 Z " /><path fill="rgb(234,235,234)" stroke="rgb(234,235,234)" stroke-width="1" opacity="1" d="M 203.5 197 L 206 197.5 L 203.5 198 L 203.5 197 Z " /><path fill="rgb(234,235,234)" stroke="rgb(234,235,234)" stroke-width="1" opacity="1" d="M 237.5 197 L 240 197.5 L 237.5 198 L 237.5 197 Z " /><path fill="rgb(234,235,234)" stroke="rgb(234,235,234)" stroke-width="1" opacity="1" d="M 130.5 205 L 131 212.5 L 130 212.5 L 130.5 205 Z " /><path fill="rgb(234,235,234)" stroke="rgb(234,235,234)" stroke-width="1" opacity="1" d="M 228.5 205 L 229.5 207 Q 226.7 207.7 228.5 205 Z " /><path fill="rgb(234,235,234)" stroke="rgb(234,235,234)" stroke-width="1" opacity="1" d="M 165.5 206 L 168 206.5 Q 165.9 209.8 165.5 206 Z " /><path fill="rgb(234,235,234)" stroke="rgb(234,235,234)" stroke-width="1" opacity="1" d="M 204.5 206 L 207 206.5 Q 204.9 209.8 204.5 206 Z " /><path fill="rgb(234,235,234)" stroke="rgb(234,235,234)" stroke-width="1" opacity="1" d="M 222.5 207 L 223.5 209 L 222.5 207 Z " /><path fill="rgb(234,235,234)" stroke="rgb(234,235,234)" stroke-width="1" opacity="1" d="M 108 208 L 110 208 L 110 213 L 108 213 L 108 208 Z " /><path fill="rgb(234,235,234)" stroke="rgb(234,235,234)" stroke-width="1" opacity="1" d="M 207.5 208 L 208 210 L 206 209.5 L 207.5 208 Z " /><path fill="rgb(234,235,234)" stroke="rgb(234,235,234)" stroke-width="1" opacity="1" d="M 229 208 Q 231.7 206.9 231 209.5 L 231 211.5 Q 231.7 214.1 229 213 L 229 208 Z " /><path fill="rgb(234,235,234)" stroke="rgb(234,235,234)" stroke-width="1" opacity="1" d="M 143 209 Q 146.3 207.9 145 212 Q 141.7 213.1 143 209 Z " /><path fill="rgb(234,235,234)" stroke="rgb(234,235,234)" stroke-width="1" opacity="1" d="M 223.5 212 L 222.5 214 L 223.5 212 Z " /><path fill="rgb(234,235,234)" stroke="rgb(234,235,234)" stroke-width="1" opacity="1" d="M 183.5 213 L 189 214 L 187.5 219 L 185 214 L 183.5 213 Z " /><path fill="rgb(234,235,234)" stroke="rgb(234,235,234)" stroke-width="1" opacity="1" d="M 128 214 L 130 214.5 L 128 215.5 L 128 214 Z " /><path fill="rgb(234,235,234)" stroke="rgb(234,235,234)" stroke-width="1" opacity="1" d="M 162 214 Q 165 213 164 216 Q 161 217 162 214 Z " /><path fill="rgb(234,235,234)" stroke="rgb(234,235,234)" stroke-width="1" opacity="1" d="M 170.5 214 L 171 216 L 169 215.5 L 170.5 214 Z " /><path fill="rgb(254,255,254)" stroke="rgb(254,255,254)" stroke-width="1" opacity="1" d="M 99.5 152 L 100 196.5 L 99 196.5 L 99.5 152 Z " /><path fill="rgb(254,255,254)" stroke="rgb(254,255,254)" stroke-width="1" opacity="1" d="M 141.5 152 L 142.5 154 L 141.5 152 Z " /><path fill="rgb(254,255,254)" stroke="rgb(254,255,254)" stroke-width="1" opacity="1" d="M 176.5 153 L 175.5 155 L 176.5 153 Z " /><path fill="rgb(254,255,254)" stroke="rgb(254,255,254)" stroke-width="1" opacity="1" d="M 250.5 154 L 253 157.5 L 250 159.5 L 252 156.5 L 250.5 154 Z " /><path fill="rgb(254,255,254)" stroke="rgb(254,255,254)" stroke-width="1" opacity="1" d="M 69.5 155 L 70.5 157 L 69.5 155 Z " /><path fill="rgb(254,255,254)" stroke="rgb(254,255,254)" stroke-width="1" opacity="1" d="M 143.5 155 L 144.5 157 L 143.5 155 Z " /><path fill="rgb(254,255,254)" stroke="rgb(254,255,254)" stroke-width="1" opacity="1" d="M 174.5 156 L 173.5 158 L 174.5 156 Z " /><path fill="rgb(254,255,254)" stroke="rgb(254,255,254)" stroke-width="1" opacity="1" d="M 145.5 158 L 146.5 160 L 145.5 158 Z " /><path fill="rgb(254,255,254)" stroke="rgb(254,255,254)" stroke-width="1" opacity="1" d="M 72.5 159 L 73.5 161 L 72.5 159 Z " /><path fill="rgb(254,255,254)" stroke="rgb(254,255,254)" stroke-width="1" opacity="1" d="M 172.5 159 L 171.5 161 L 172.5 159 Z " /><path fill="rgb(254,255,254)" stroke="rgb(254,255,254)" stroke-width="1" opacity="1" d="M 247.5 159 L 248.5 161 L 247.5 159 Z " /><path fill="rgb(254,255,254)" stroke="rgb(254,255,254)" stroke-width="1" opacity="1" d="M 147.5 161 L 148.5 163 L 147.5 161 Z " /><path fill="rgb(254,255,254)" stroke="rgb(254,255,254)" stroke-width="1" opacity="1" d="M 164.5 161 L 163.5 163 L 164.5 161 Z " /><path fill="rgb(254,255,254)" stroke="rgb(254,255,254)" stroke-width="1" opacity="1" d="M 67.5 163 L 70 164.5 L 68.5 164 L 67.5 163 Z " /><path fill="rgb(254,255,254)" stroke="rgb(254,255,254)" stroke-width="1" opacity="1" d="M 75.5 163 L 76.5 165 L 75.5 163 Z " /><path fill="rgb(254,255,254)" stroke="rgb(254,255,254)" stroke-width="1" opacity="1" d="M 155.5 163 L 156.5 165 L 155.5 163 Z " /><path fill="rgb(254,255,254)" stroke="rgb(254,255,254)" stroke-width="1" opacity="1" d="M 149.5 164 L 150.5 166 L 149.5 164 Z " /><path fill="rgb(254,255,254)" stroke="rgb(254,255,254)" stroke-width="1" opacity="1" d="M 71.5 167 L 72.5 169 L 71.5 167 Z " /><path fill="rgb(254,255,254)" stroke="rgb(254,255,254)" stroke-width="1" opacity="1" d="M 78.5 167 L 79.5 169 L 78.5 167 Z " /><path fill="rgb(254,255,254)" stroke="rgb(254,255,254)" stroke-width="1" opacity="1" d="M 74.5 171 L 75.5 173 L 74.5 171 Z " /><path fill="rgb(254,255,254)" stroke="rgb(254,255,254)" stroke-width="1" opacity="1" d="M 81.5 171 L 82.5 173 L 81.5 171 Z " /><path fill="rgb(254,255,254)" stroke="rgb(254,255,254)" stroke-width="1" opacity="1" d="M 77.5 175 L 78.5 177 L 77.5 175 Z " /><path fill="rgb(254,255,254)" stroke="rgb(254,255,254)" stroke-width="1" opacity="1" d="M 84.5 175 L 85.5 177 L 84.5 175 Z " /><path fill="rgb(254,255,254)" stroke="rgb(254,255,254)" stroke-width="1" opacity="1" d="M 251.5 175 L 252.5 177 L 251.5 175 Z " /><path fill="rgb(254,255,254)" stroke="rgb(254,255,254)" stroke-width="1" opacity="1" d="M 80.5 179 L 81.5 181 L 80.5 179 Z " /><path fill="rgb(254,255,254)" stroke="rgb(254,255,254)" stroke-width="1" opacity="1" d="M 246.5 179 L 248.5 182 L 246.5 179 Z " /><path fill="rgb(254,255,254)" stroke="rgb(254,255,254)" stroke-width="1" opacity="1" d="M 161.5 182 L 162.5 184 L 161.5 182 Z " /><path fill="rgb(254,255,254)" stroke="rgb(254,255,254)" stroke-width="1" opacity="1" d="M 83.5 183 L 84.5 185 L 83.5 183 Z " /><path fill="rgb(254,255,254)" stroke="rgb(254,255,254)" stroke-width="1" opacity="1" d="M 156.5 183 L 155.5 185 L 156.5 183 Z " /><path fill="rgb(254,255,254)" stroke="rgb(254,255,254)" stroke-width="1" opacity="1" d="M 255.5 183 L 256 185.5 L 255 185.5 L 255.5 183 Z " /><path fill="rgb(254,255,254)" stroke="rgb(254,255,254)" stroke-width="1" opacity="1" d="M 91.5 184 L 94 185.5 L 92.5 186 L 91.5 184 Z " /><path fill="rgb(254,255,254)" stroke="rgb(254,255,254)" stroke-width="1" opacity="1" d="M 169.5 184 L 170.5 186 L 169.5 184 Z " /><path fill="rgb(254,255,254)" stroke="rgb(254,255,254)" stroke-width="1" opacity="1" d="M 86.5 187 L 87.5 189 L 86.5 187 Z " /><path fill="rgb(254,255,254)" stroke="rgb(254,255,254)" stroke-width="1" opacity="1" d="M 171.5 187 L 172.5 189 L 171.5 187 Z " /><path fill="rgb(254,255,254)" stroke="rgb(254,255,254)" stroke-width="1" opacity="1" d="M 210.5 187 L 208.5 190 L 210.5 187 Z " /><path fill="rgb(254,255,254)" stroke="rgb(254,255,254)" stroke-width="1" opacity="1" d="M 146.5 188 L 145.5 190 L 146.5 188 Z " /><path fill="rgb(254,255,254)" stroke="rgb(254,255,254)" stroke-width="1" opacity="1" d="M 248.5 188 L 247.5 190 L 248.5 188 Z " /><path fill="rgb(254,255,254)" stroke="rgb(254,255,254)" stroke-width="1" opacity="1" d="M 173.5 190 L 174.5 192 L 173.5 190 Z " /><path fill="rgb(254,255,254)" stroke="rgb(254,255,254)" stroke-width="1" opacity="1" d="M 89.5 191 L 90.5 193 L 89.5 191 Z " /><path fill="rgb(254,255,254)" stroke="rgb(254,255,254)" stroke-width="1" opacity="1" d="M 144.5 191 L 143.5 193 L 144.5 191 Z " /><path fill="rgb(254,255,254)" stroke="rgb(254,255,254)" stroke-width="1" opacity="1" d="M 175.5 193 L 176.5 195 L 175.5 193 Z " /><path fill="rgb(254,255,254)" stroke="rgb(254,255,254)" stroke-width="1" opacity="1" d="M 189.5 193 L 190.5 195 L 189.5 193 Z " /><path fill="rgb(254,255,254)" stroke="rgb(254,255,254)" stroke-width="1" opacity="1" d="M 230.5 193 L 231.5 195 L 230.5 193 Z " /><path fill="rgb(254,255,254)" stroke="rgb(254,255,254)" stroke-width="1" opacity="1" d="M 142.5 194 L 141.5 196 L 142.5 194 Z " /><path fill="rgb(254,255,254)" stroke="rgb(254,255,254)" stroke-width="1" opacity="1" d="M 92.5 195 L 93.5 197 L 92.5 195 Z " /><path fill="rgb(254,255,254)" stroke="rgb(254,255,254)" stroke-width="1" opacity="1" d="M 83.5 205 L 84 215.5 L 83 215.5 L 83.5 205 Z " /><path fill="rgb(254,255,254)" stroke="rgb(254,255,254)" stroke-width="1" opacity="1" d="M 106.5 205 L 108.5 208 L 106.5 205 Z " /><path fill="rgb(254,255,254)" stroke="rgb(254,255,254)" stroke-width="1" opacity="1" d="M 123.5 205 L 124 213.5 L 126 215.5 L 123 213.5 L 123.5 205 Z " /><path fill="rgb(254,255,254)" stroke="rgb(254,255,254)" stroke-width="1" opacity="1" d="M 129.5 205 L 130 213.5 L 129 213.5 L 129.5 205 Z " /><path fill="rgb(254,255,254)" stroke="rgb(254,255,254)" stroke-width="1" opacity="1" d="M 102.5 206 L 103 214.5 L 102 214.5 L 102.5 206 Z " /><path fill="rgb(254,255,254)" stroke="rgb(254,255,254)" stroke-width="1" opacity="1" d="M 145.5 206 L 145 207.5 L 144.5 209 L 144 207.5 L 145.5 206 Z " /><path fill="rgb(254,255,254)" stroke="rgb(254,255,254)" stroke-width="1" opacity="1" d="M 184.5 206 L 184 207.5 L 183.5 212 L 183 207.5 L 184.5 206 Z " /><path fill="rgb(254,255,254)" stroke="rgb(254,255,254)" stroke-width="1" opacity="1" d="M 223.5 206 L 224 207.5 L 223 212.5 L 224 214.5 L 223 214.5 L 222 208.5 L 223.5 206 Z " /><path fill="rgb(254,255,254)" stroke="rgb(254,255,254)" stroke-width="1" opacity="1" d="M 207.5 210 L 209 213.5 L 208 213.5 L 207.5 210 Z " /><path fill="rgb(254,255,254)" stroke="rgb(254,255,254)" stroke-width="1" opacity="1" d="M 144.5 212 L 147 215.5 L 144 213.5 L 144.5 212 Z " /><path fill="rgb(254,255,254)" stroke="rgb(254,255,254)" stroke-width="1" opacity="1" d="M 108.5 213 L 106.5 216 L 108.5 213 Z " /><path fill="rgb(254,255,254)" stroke="rgb(254,255,254)" stroke-width="1" opacity="1" d="M 229.5 213 L 227.5 216 L 229.5 213 Z " /><path fill="rgb(139,143,141)" stroke="rgb(139,143,141)" stroke-width="1" opacity="1" d="M 151.5 45 L 162 45.5 L 151.5 46 L 151.5 45 Z " /><path fill="rgb(139,143,141)" stroke="rgb(139,143,141)" stroke-width="1" opacity="1" d="M 275.5 74 L 278 74.5 L 275.5 75 L 275.5 74 Z " /><path fill="rgb(139,143,141)" stroke="rgb(139,143,141)" stroke-width="1" opacity="1" d="M 33.5 75 L 33 76.5 L 34 78.5 L 32 77.5 L 33.5 75 Z " /><path fill="rgb(139,143,141)" stroke="rgb(139,143,141)" stroke-width="1" opacity="1" d="M 137.5 85 L 160 85.5 L 137.5 86 L 137.5 85 Z " /><path fill="rgb(139,143,141)" stroke="rgb(139,143,141)" stroke-width="1" opacity="1" d="M 125.5 86 L 129 86.5 L 125.5 87 L 125.5 86 Z " /><path fill="rgb(139,143,141)" stroke="rgb(139,143,141)" stroke-width="1" opacity="1" d="M 170.5 86 L 174 86.5 L 170.5 87 L 170.5 86 Z " /><path fill="rgb(139,143,141)" stroke="rgb(139,143,141)" stroke-width="1" opacity="1" d="M 118.5 87 L 121 87.5 L 118.5 88 L 118.5 87 Z " /><path fill="rgb(139,143,141)" stroke="rgb(139,143,141)" stroke-width="1" opacity="1" d="M 180.5 87 L 185 88.5 L 181.5 89 L 180.5 87 Z " /><path fill="rgb(139,143,141)" stroke="rgb(139,143,141)" stroke-width="1" opacity="1" d="M 112.5 88 L 115 88.5 L 112.5 89 L 112.5 88 Z " /><path fill="rgb(139,143,141)" stroke="rgb(139,143,141)" stroke-width="1" opacity="1" d="M 145.5 88 L 150 88.5 L 145.5 89 L 145.5 88 Z " /><path fill="rgb(139,143,141)" stroke="rgb(139,143,141)" stroke-width="1" opacity="1" d="M 135.5 89 L 139 89.5 L 135.5 90 L 135.5 89 Z " /><path fill="rgb(139,143,141)" stroke="rgb(139,143,141)" stroke-width="1" opacity="1" d="M 127.5 90 L 130 90.5 L 127.5 91 L 127.5 90 Z " /><path fill="rgb(139,143,141)" stroke="rgb(139,143,141)" stroke-width="1" opacity="1" d="M 91.5 100 L 92 117.5 L 93 118.5 L 91 117.5 L 91.5 100 Z " /><path fill="rgb(139,143,141)" stroke="rgb(139,143,141)" stroke-width="1" opacity="1" d="M 138.5 110 L 145 110.5 L 138.5 111 L 138.5 110 Z " /><path fill="rgb(139,143,141)" stroke="rgb(139,143,141)" stroke-width="1" opacity="1" d="M 169.5 110 L 176 110.5 L 169.5 111 L 169.5 110 Z " /><path fill="rgb(139,143,141)" stroke="rgb(139,143,141)" stroke-width="1" opacity="1" d="M 129.5 111 L 133 111.5 L 129.5 112 L 129.5 111 Z " /><path fill="rgb(139,143,141)" stroke="rgb(139,143,141)" stroke-width="1" opacity="1" d="M 181.5 111 L 185 111.5 L 181.5 112 L 181.5 111 Z " /><path fill="rgb(139,143,141)" stroke="rgb(139,143,141)" stroke-width="1" opacity="1" d="M 121.5 112 L 124 112.5 L 121.5 113 L 121.5 112 Z " /><path fill="rgb(139,143,141)" stroke="rgb(139,143,141)" stroke-width="1" opacity="1" d="M 195.5 113 L 198 113.5 L 195.5 114 L 195.5 113 Z " /><path fill="rgb(139,143,141)" stroke="rgb(139,143,141)" stroke-width="1" opacity="1" d="M 110.5 114 L 113 114.5 L 110.5 115 L 110.5 114 Z " /><path fill="rgb(139,143,141)" stroke="rgb(139,143,141)" stroke-width="1" opacity="1" d="M 201.5 114 L 204 114.5 L 201.5 115 L 201.5 114 Z " /><path fill="rgb(139,143,141)" stroke="rgb(139,143,141)" stroke-width="1" opacity="1" d="M 68.5 152 L 69.5 154 L 68.5 152 Z " /><path fill="rgb(139,143,141)" stroke="rgb(139,143,141)" stroke-width="1" opacity="1" d="M 92.5 152 L 93 184.5 L 92 184.5 L 89 180.5 L 92 181.5 L 92.5 152 Z " /><path fill="rgb(139,143,141)" stroke="rgb(139,143,141)" stroke-width="1" opacity="1" d="M 100.5 152 L 101 196.5 L 100 196.5 L 100.5 152 Z " /><path fill="rgb(139,143,141)" stroke="rgb(139,143,141)" stroke-width="1" opacity="1" d="M 110.5 152 L 111 196.5 L 110 196.5 L 110.5 152 Z " /><path fill="rgb(139,143,141)" stroke="rgb(139,143,141)" stroke-width="1" opacity="1" d="M 140.5 152 L 141.5 154 L 140.5 152 Z " /><path fill="rgb(139,143,141)" stroke="rgb(139,143,141)" stroke-width="1" opacity="1" d="M 149.5 152 L 150.5 154 L 149.5 152 Z " /><path fill="rgb(139,143,141)" stroke="rgb(139,143,141)" stroke-width="1" opacity="1" d="M 178.5 152 L 176.5 155 L 178.5 152 Z " /><path fill="rgb(139,143,141)" stroke="rgb(139,143,141)" stroke-width="1" opacity="1" d="M 211.5 152 L 212 182.5 L 211 182.5 L 211.5 152 Z " /><path fill="rgb(139,143,141)" stroke="rgb(139,143,141)" stroke-width="1" opacity="1" d="M 219.5 152 L 220 183.5 L 219 183.5 L 219.5 152 Z " /><path fill="rgb(139,143,141)" stroke="rgb(139,143,141)" stroke-width="1" opacity="1" d="M 168.5 153 L 167.5 155 L 168.5 153 Z " /><path fill="rgb(139,143,141)" stroke="rgb(139,143,141)" stroke-width="1" opacity="1" d="M 250.5 153 L 254 157.5 L 248.5 162 L 248.5 161 L 253 157.5 L 250.5 153 Z " /><path fill="rgb(139,143,141)" stroke="rgb(139,143,141)" stroke-width="1" opacity="1" d="M 230.5 154 L 229.5 156 L 230.5 154 Z " /><path fill="rgb(139,143,141)" stroke="rgb(139,143,141)" stroke-width="1" opacity="1" d="M 70.5 155 L 72.5 158 L 70.5 155 Z " /><path fill="rgb(139,143,141)" stroke="rgb(139,143,141)" stroke-width="1" opacity="1" d="M 142.5 155 L 143.5 157 L 142.5 155 Z " /><path fill="rgb(139,143,141)" stroke="rgb(139,143,141)" stroke-width="1" opacity="1" d="M 151.5 155 L 152.5 157 L 151.5 155 Z " /><path fill="rgb(139,143,141)" stroke="rgb(139,143,141)" stroke-width="1" opacity="1" d="M 166.5 156 L 165.5 158 L 166.5 156 Z " /><path fill="rgb(139,143,141)" stroke="rgb(139,143,141)" stroke-width="1" opacity="1" d="M 175.5 156 L 174.5 158 L 175.5 156 Z " /><path fill="rgb(139,143,141)" stroke="rgb(139,143,141)" stroke-width="1" opacity="1" d="M 144.5 158 L 145.5 160 L 144.5 158 Z " /><path fill="rgb(139,143,141)" stroke="rgb(139,143,141)" stroke-width="1" opacity="1" d="M 153.5 158 L 154.5 160 L 153.5 158 Z " /><path fill="rgb(139,143,141)" stroke="rgb(139,143,141)" stroke-width="1" opacity="1" d="M 73.5 159 L 75.5 162 L 73.5 159 Z " /><path fill="rgb(139,143,141)" stroke="rgb(139,143,141)" stroke-width="1" opacity="1" d="M 118.5 159 L 119 170.5 L 118 170.5 L 118.5 159 Z " /><path fill="rgb(139,143,141)" stroke="rgb(139,143,141)" stroke-width="1" opacity="1" d="M 164.5 159 L 164 160.5 L 162.5 163 L 163 161.5 L 164.5 159 Z " /><path fill="rgb(139,143,141)" stroke="rgb(139,143,141)" stroke-width="1" opacity="1" d="M 173.5 159 L 172.5 161 L 173.5 159 Z " /><path fill="rgb(139,143,141)" stroke="rgb(139,143,141)" stroke-width="1" opacity="1" d="M 236.5 159 L 236 160.5 L 235.5 162 L 235 160.5 L 236.5 159 Z " /><path fill="rgb(139,143,141)" stroke="rgb(139,143,141)" stroke-width="1" opacity="1" d="M 146.5 161 L 147.5 163 L 146.5 161 Z " /><path fill="rgb(139,143,141)" stroke="rgb(139,143,141)" stroke-width="1" opacity="1" d="M 171.5 162 L 170.5 164 L 171.5 162 Z " /><path fill="rgb(139,143,141)" stroke="rgb(139,143,141)" stroke-width="1" opacity="1" d="M 76.5 163 L 78.5 166 L 76.5 163 Z " /><path fill="rgb(139,143,141)" stroke="rgb(139,143,141)" stroke-width="1" opacity="1" d="M 156.5 163 L 157.5 165 L 156.5 163 Z " /><path fill="rgb(139,143,141)" stroke="rgb(139,143,141)" stroke-width="1" opacity="1" d="M 148.5 164 L 149.5 166 L 148.5 164 Z " /><path fill="rgb(139,143,141)" stroke="rgb(139,143,141)" stroke-width="1" opacity="1" d="M 161.5 164 L 160.5 166 L 161.5 164 Z " /><path fill="rgb(139,143,141)" stroke="rgb(139,143,141)" stroke-width="1" opacity="1" d="M 68.5 165 L 71.5 169 L 68.5 165 Z " /><path fill="rgb(139,143,141)" stroke="rgb(139,143,141)" stroke-width="1" opacity="1" d="M 169.5 165 L 168.5 167 L 169.5 165 Z " /><path fill="rgb(139,143,141)" stroke="rgb(139,143,141)" stroke-width="1" opacity="1" d="M 235.5 165 L 237.5 168 L 235.5 165 Z " /><path fill="rgb(139,143,141)" stroke="rgb(139,143,141)" stroke-width="1" opacity="1" d="M 79.5 167 L 81.5 170 L 79.5 167 Z " /><path fill="rgb(139,143,141)" stroke="rgb(139,143,141)" stroke-width="1" opacity="1" d="M 150.5 167 L 151.5 169 L 150.5 167 Z " /><path fill="rgb(139,143,141)" stroke="rgb(139,143,141)" stroke-width="1" opacity="1" d="M 167.5 168 L 166.5 170 L 167.5 168 Z " /><path fill="rgb(139,143,141)" stroke="rgb(139,143,141)" stroke-width="1" opacity="1" d="M 72.5 170 L 74.5 173 L 72.5 170 Z " /><path fill="rgb(139,143,141)" stroke="rgb(139,143,141)" stroke-width="1" opacity="1" d="M 152.5 170 L 153.5 172 L 152.5 170 Z " /><path fill="rgb(139,143,141)" stroke="rgb(139,143,141)" stroke-width="1" opacity="1" d="M 82.5 171 L 89 178.5 L 85 175.5 L 82.5 171 Z " /><path fill="rgb(139,143,141)" stroke="rgb(139,143,141)" stroke-width="1" opacity="1" d="M 134.5 171 L 135 177.5 L 134 177.5 L 134.5 171 Z " /><path fill="rgb(139,143,141)" stroke="rgb(139,143,141)" stroke-width="1" opacity="1" d="M 165.5 171 L 164.5 173 L 165.5 171 Z " /><path fill="rgb(139,143,141)" stroke="rgb(139,143,141)" stroke-width="1" opacity="1" d="M 229.5 171 L 230.5 173 L 229.5 171 Z " /><path fill="rgb(139,143,141)" stroke="rgb(139,143,141)" stroke-width="1" opacity="1" d="M 248.5 172 L 249.5 174 L 248.5 172 Z " /><path fill="rgb(139,143,141)" stroke="rgb(139,143,141)" stroke-width="1" opacity="1" d="M 232.5 173 L 233.5 175 L 232.5 173 Z " /><path fill="rgb(139,143,141)" stroke="rgb(139,143,141)" stroke-width="1" opacity="1" d="M 75.5 174 L 77.5 177 L 75.5 174 Z " /><path fill="rgb(139,143,141)" stroke="rgb(139,143,141)" stroke-width="1" opacity="1" d="M 251.5 174 L 254.5 178 L 251.5 174 Z " /><path fill="rgb(139,143,141)" stroke="rgb(139,143,141)" stroke-width="1" opacity="1" d="M 164.5 175 L 165.5 177 L 164.5 175 Z " /><path fill="rgb(139,143,141)" stroke="rgb(139,143,141)" stroke-width="1" opacity="1" d="M 153.5 176 L 152.5 178 L 153.5 176 Z " /><path fill="rgb(139,143,141)" stroke="rgb(139,143,141)" stroke-width="1" opacity="1" d="M 78.5 178 L 80.5 181 L 78.5 178 Z " /><path fill="rgb(139,143,141)" stroke="rgb(139,143,141)" stroke-width="1" opacity="1" d="M 118.5 178 L 119 189.5 L 118 189.5 L 118.5 178 Z " /><path fill="rgb(139,143,141)" stroke="rgb(139,143,141)" stroke-width="1" opacity="1" d="M 166.5 178 L 167.5 180 L 166.5 178 Z " /><path fill="rgb(139,143,141)" stroke="rgb(139,143,141)" stroke-width="1" opacity="1" d="M 151.5 179 L 150.5 181 L 151.5 179 Z " /><path fill="rgb(139,143,141)" stroke="rgb(139,143,141)" stroke-width="1" opacity="1" d="M 246.5 180 L 247.5 182 L 246.5 180 Z " /><path fill="rgb(139,143,141)" stroke="rgb(139,143,141)" stroke-width="1" opacity="1" d="M 168.5 181 L 169.5 183 L 168.5 181 Z " /><path fill="rgb(139,143,141)" stroke="rgb(139,143,141)" stroke-width="1" opacity="1" d="M 81.5 182 L 83.5 185 L 81.5 182 Z " /><path fill="rgb(139,143,141)" stroke="rgb(139,143,141)" stroke-width="1" opacity="1" d="M 149.5 182 L 148.5 184 L 149.5 182 Z " /><path fill="rgb(139,143,141)" stroke="rgb(139,143,141)" stroke-width="1" opacity="1" d="M 160.5 182 L 161.5 184 L 160.5 182 Z " /><path fill="rgb(139,143,141)" stroke="rgb(139,143,141)" stroke-width="1" opacity="1" d="M 256.5 182 L 257 187.5 L 256 187.5 L 256.5 182 Z " /><path fill="rgb(139,143,141)" stroke="rgb(139,143,141)" stroke-width="1" opacity="1" d="M 157.5 183 L 157 184.5 L 155.5 187 L 156 185.5 L 157.5 183 Z " /><path fill="rgb(139,143,141)" stroke="rgb(139,143,141)" stroke-width="1" opacity="1" d="M 248.5 183 L 249 186.5 L 248 186.5 L 248.5 183 Z " /><path fill="rgb(139,143,141)" stroke="rgb(139,143,141)" stroke-width="1" opacity="1" d="M 170.5 184 L 171.5 186 L 170.5 184 Z " /><path fill="rgb(139,143,141)" stroke="rgb(139,143,141)" stroke-width="1" opacity="1" d="M 231.5 184 L 233.5 187 L 231.5 184 Z " /><path fill="rgb(139,143,141)" stroke="rgb(139,143,141)" stroke-width="1" opacity="1" d="M 147.5 185 L 146.5 187 L 147.5 185 Z " /><path fill="rgb(139,143,141)" stroke="rgb(139,143,141)" stroke-width="1" opacity="1" d="M 84.5 186 L 86.5 189 L 84.5 186 Z " /><path fill="rgb(139,143,141)" stroke="rgb(139,143,141)" stroke-width="1" opacity="1" d="M 192.5 186 L 195.5 190 L 192.5 186 Z " /><path fill="rgb(139,143,141)" stroke="rgb(139,143,141)" stroke-width="1" opacity="1" d="M 163.5 187 L 164.5 189 L 163.5 187 Z " /><path fill="rgb(139,143,141)" stroke="rgb(139,143,141)" stroke-width="1" opacity="1" d="M 172.5 187 L 173.5 189 L 172.5 187 Z " /><path fill="rgb(139,143,141)" stroke="rgb(139,143,141)" stroke-width="1" opacity="1" d="M 209.5 187 L 208.5 189 L 209.5 187 Z " /><path fill="rgb(139,143,141)" stroke="rgb(139,143,141)" stroke-width="1" opacity="1" d="M 226.5 187 L 226 188.5 L 227 190.5 L 225 189.5 L 226.5 187 Z " /><path fill="rgb(139,143,141)" stroke="rgb(139,143,141)" stroke-width="1" opacity="1" d="M 145.5 188 L 144.5 190 L 145.5 188 Z " /><path fill="rgb(139,143,141)" stroke="rgb(139,143,141)" stroke-width="1" opacity="1" d="M 154.5 188 L 153.5 190 L 154.5 188 Z " /><path fill="rgb(139,143,141)" stroke="rgb(139,143,141)" stroke-width="1" opacity="1" d="M 184.5 188 L 186 190.5 L 184 189.5 L 184.5 188 Z " /><path fill="rgb(139,143,141)" stroke="rgb(139,143,141)" stroke-width="1" opacity="1" d="M 247.5 188 L 246.5 190 L 247.5 188 Z " /><path fill="rgb(139,143,141)" stroke="rgb(139,143,141)" stroke-width="1" opacity="1" d="M 255.5 189 L 256 190.5 L 254 191.5 L 255.5 189 Z " /><path fill="rgb(139,143,141)" stroke="rgb(139,143,141)" stroke-width="1" opacity="1" d="M 87.5 190 L 89.5 193 L 87.5 190 Z " /><path fill="rgb(139,143,141)" stroke="rgb(139,143,141)" stroke-width="1" opacity="1" d="M 165.5 190 L 166.5 192 L 165.5 190 Z " /><path fill="rgb(139,143,141)" stroke="rgb(139,143,141)" stroke-width="1" opacity="1" d="M 174.5 190 L 179 196.5 L 178 196.5 L 174.5 190 Z " /><path fill="rgb(139,143,141)" stroke="rgb(139,143,141)" stroke-width="1" opacity="1" d="M 143.5 191 L 142 193.5 L 139.5 197 L 141 194.5 L 143.5 191 Z " /><path fill="rgb(139,143,141)" stroke="rgb(139,143,141)" stroke-width="1" opacity="1" d="M 152.5 191 L 151.5 193 L 152.5 191 Z " /><path fill="rgb(139,143,141)" stroke="rgb(139,143,141)" stroke-width="1" opacity="1" d="M 216.5 191 L 213.5 195 L 216.5 191 Z " /><path fill="rgb(139,143,141)" stroke="rgb(139,143,141)" stroke-width="1" opacity="1" d="M 167.5 193 L 168.5 195 L 167.5 193 Z " /><path fill="rgb(139,143,141)" stroke="rgb(139,143,141)" stroke-width="1" opacity="1" d="M 253.5 193 L 252.5 195 L 253.5 193 Z " /><path fill="rgb(139,143,141)" stroke="rgb(139,143,141)" stroke-width="1" opacity="1" d="M 90.5 194 L 92.5 197 L 90.5 194 Z " /><path fill="rgb(139,143,141)" stroke="rgb(139,143,141)" stroke-width="1" opacity="1" d="M 150.5 194 L 149.5 196 L 150.5 194 Z " /><path fill="rgb(139,143,141)" stroke="rgb(139,143,141)" stroke-width="1" opacity="1" d="M 189.5 194 L 190.5 196 L 189.5 194 Z " /><path fill="rgb(139,143,141)" stroke="rgb(139,143,141)" stroke-width="1" opacity="1" d="M 230.5 194 L 231.5 196 L 230.5 194 Z " /><path fill="rgb(139,143,141)" stroke="rgb(139,143,141)" stroke-width="1" opacity="1" d="M 250.5 195 L 249.5 197 L 250.5 195 Z " /><path fill="rgb(139,143,141)" stroke="rgb(139,143,141)" stroke-width="1" opacity="1" d="M 203.5 202 L 205.5 203 Q 206.7 200.7 208 203.5 L 205.5 204 L 203.5 202 Z " /><path fill="rgb(139,143,141)" stroke="rgb(139,143,141)" stroke-width="1" opacity="1" d="M 82.5 205 L 83 215.5 L 82 215.5 L 82.5 205 Z " /><path fill="rgb(139,143,141)" stroke="rgb(139,143,141)" stroke-width="1" opacity="1" d="M 101.5 205 L 102 215.5 L 101 215.5 L 101.5 205 Z " /><path fill="rgb(139,143,141)" stroke="rgb(139,143,141)" stroke-width="1" opacity="1" d="M 107.5 205 L 107.5 208 Q 104.5 206.5 107.5 205 Z " /><path fill="rgb(139,143,141)" stroke="rgb(139,143,141)" stroke-width="1" opacity="1" d="M 122.5 205 L 123 213.5 L 122 213.5 L 122.5 205 Z " /><path fill="rgb(139,143,141)" stroke="rgb(139,143,141)" stroke-width="1" opacity="1" d="M 145.5 205 L 146.5 207 L 144 206.5 L 145.5 205 Z " /><path fill="rgb(139,143,141)" stroke="rgb(139,143,141)" stroke-width="1" opacity="1" d="M 150.5 205 L 149.5 207 L 150.5 205 Z " /><path fill="rgb(139,143,141)" stroke="rgb(139,143,141)" stroke-width="1" opacity="1" d="M 184.5 205 L 185.5 207 L 183 206.5 L 184.5 205 Z " /><path fill="rgb(139,143,141)" stroke="rgb(139,143,141)" stroke-width="1" opacity="1" d="M 189.5 205 L 190 207 L 188 206.5 L 189.5 205 Z " /><path fill="rgb(139,143,141)" stroke="rgb(139,143,141)" stroke-width="1" opacity="1" d="M 84.5 206 L 85 209.5 L 84 209.5 L 84.5 206 Z " /><path fill="rgb(139,143,141)" stroke="rgb(139,143,141)" stroke-width="1" opacity="1" d="M 103.5 206 L 104 214.5 L 103 214.5 L 103.5 206 Z " /><path fill="rgb(139,143,141)" stroke="rgb(139,143,141)" stroke-width="1" opacity="1" d="M 225.5 206 L 224.5 208 L 225.5 206 Z " /><path fill="rgb(139,143,141)" stroke="rgb(139,143,141)" stroke-width="1" opacity="1" d="M 227.5 206 L 228.5 208 L 227.5 206 Z " /><path fill="rgb(139,143,141)" stroke="rgb(139,143,141)" stroke-width="1" opacity="1" d="M 221.5 209 L 222 211.5 L 221 211.5 L 221.5 209 Z " /><path fill="rgb(139,143,141)" stroke="rgb(139,143,141)" stroke-width="1" opacity="1" d="M 223.5 209 L 224 211.5 L 223 211.5 L 223.5 209 Z " /><path fill="rgb(139,143,141)" stroke="rgb(139,143,141)" stroke-width="1" opacity="1" d="M 84.5 211 L 85 214.5 L 84 214.5 L 84.5 211 Z " /><path fill="rgb(139,143,141)" stroke="rgb(139,143,141)" stroke-width="1" opacity="1" d="M 124.5 212 L 126 214.5 L 124 215.5 L 124 213.5 L 124.5 212 Z " /><path fill="rgb(139,143,141)" stroke="rgb(139,143,141)" stroke-width="1" opacity="1" d="M 107.5 213 L 107.5 216 Q 104.5 214.5 107.5 213 Z " /><path fill="rgb(139,143,141)" stroke="rgb(139,143,141)" stroke-width="1" opacity="1" d="M 128.5 213 L 127.5 215 L 128.5 213 Z " /><path fill="rgb(139,143,141)" stroke="rgb(139,143,141)" stroke-width="1" opacity="1" d="M 145.5 213 Q 148.5 214.5 145.5 216 L 145.5 213 Z " /><path fill="rgb(139,143,141)" stroke="rgb(139,143,141)" stroke-width="1" opacity="1" d="M 228.5 213 L 228.5 216 Q 225.5 214.5 228.5 213 Z " /><path fill="rgb(139,143,141)" stroke="rgb(139,143,141)" stroke-width="1" opacity="1" d="M 149.5 214 L 150.5 216 L 149.5 214 Z " /><path fill="rgb(139,143,141)" stroke="rgb(139,143,141)" stroke-width="1" opacity="1" d="M 183.5 214 L 184.5 216 L 183.5 214 Z " /><path fill="rgb(139,143,141)" stroke="rgb(139,143,141)" stroke-width="1" opacity="1" d="M 222.5 214 L 223.5 216 L 222.5 214 Z " /><path fill="rgb(255,255,255)" stroke="rgb(255,255,255)" stroke-width="1" opacity="1" d="M 150.5 46 L 163.5 46 L 183.5 52 L 277.5 75 L 281 77.5 L 263.5 83 L 252.5 85 L 251 86.5 L 251 130.5 Q 255 132.5 253 140.5 Q 251.4 143.5 246 142 L 246 132.5 L 248 130.5 L 248 87 L 222 93 L 222 116.5 L 220.5 118 L 186.5 111 L 151.5 109 L 150.5 110 L 126.5 111 L 92 118 L 92 101.5 L 93.5 100 L 112.5 94 L 132.5 90 L 153.5 89 L 154.5 88 L 179.5 88 L 180.5 89 L 192.5 90 L 192.5 89 L 176.5 86 L 167.5 86 L 166.5 85 L 133.5 85 L 132.5 86 L 123.5 86 L 122.5 87 L 105.5 89 L 90.5 93 L 34.5 79 L 33 77.5 Q 32.3 75.3 34.5 76 L 150.5 46 Z " /><path fill="rgb(255,255,255)" stroke="rgb(255,255,255)" stroke-width="1" opacity="1" d="M 240.5 151 L 245.5 152 L 252 156.5 L 249.5 160 L 239.5 157 L 234 160.5 Q 232.8 167.8 237.5 169 L 249.5 174 L 254 178.5 Q 256.3 181.7 255 188.5 L 250.5 195 L 241.5 198 L 236.5 197 L 228 191.5 L 227 188.5 L 231.5 186 L 233 189 L 236.5 191 L 245.5 191 L 249 188.5 L 250 184.5 L 246.5 179 L 232.5 173 L 230 170.5 Q 227.2 167.8 228 161.5 L 232.5 154 L 240.5 151 Z " /><path fill="rgb(255,255,255)" stroke="rgb(255,255,255)" stroke-width="1" opacity="1" d="M 61 152 Q 67.3 150.5 69 154.5 L 92.5 186 L 94 185.5 L 94 152.5 L 99 152 L 99 196.5 Q 99 197.5 94.5 197 L 68.5 163 L 67 163.5 L 67 196.5 L 66.5 197 L 61 197 L 61 152 Z " /><path fill="rgb(255,255,255)" stroke="rgb(255,255,255)" stroke-width="1" opacity="1" d="M 111 152 L 135.5 152 L 136 152.5 L 136 158 L 117 158 L 117 171 L 133 171 L 133 177 L 117 177 L 117 191 L 135.5 191 L 136 191.5 L 136 197 L 111 197 L 111 152 Z " /><path fill="rgb(255,255,255)" stroke="rgb(255,255,255)" stroke-width="1" opacity="1" d="M 142.5 152 Q 148.8 150.8 150 154.5 L 158.5 168 Q 161.8 169.1 161 166.5 L 170 152 L 177 152.5 L 163 172.5 L 163 175.5 L 177 197 Q 171.6 198.5 170 195.5 L 161 180 L 157 181.5 L 148 197 L 141 196.5 L 156 173.5 L 143 154.5 L 142.5 152 Z " /><path fill="rgb(255,255,255)" stroke="rgb(255,255,255)" stroke-width="1" opacity="1" d="M 184 152 L 189.5 152 L 190 152.5 L 190 184.5 L 195.5 191 L 202.5 192 L 208.5 190 L 211 187.5 L 212 185.5 L 212 152 L 217.5 152 L 218 152.5 L 218 186.5 L 212.5 194 L 209.5 196 L 200.5 198 L 195.5 197 L 187 191.5 L 184 185.5 L 184 152 Z " /><path fill="rgb(255,255,255)" stroke="rgb(255,255,255)" stroke-width="1" opacity="1" d="M 84.5 205 L 88 205.5 L 84.5 206 L 84.5 205 Z " /><path fill="rgb(255,255,255)" stroke="rgb(255,255,255)" stroke-width="1" opacity="1" d="M 102.5 205 L 106 205.5 L 102.5 206 L 102.5 205 Z " /><path fill="rgb(255,255,255)" stroke="rgb(255,255,255)" stroke-width="1" opacity="1" d="M 84.5 210 L 87 210.5 L 84.5 211 L 84.5 210 Z " /><path fill="rgb(255,255,255)" stroke="rgb(255,255,255)" stroke-width="1" opacity="1" d="M 164.5 212 L 169 212.5 L 164.5 213 L 164.5 212 Z " /><path fill="rgb(255,255,255)" stroke="rgb(255,255,255)" stroke-width="1" opacity="1" d="M 203.5 212 L 208 212.5 L 203.5 213 L 203.5 212 Z " /><path fill="rgb(255,255,255)" stroke="rgb(255,255,255)" stroke-width="1" opacity="1" d="M 84.5 215 L 89 215.5 L 84.5 216 L 84.5 215 Z " /><path fill="rgb(255,255,255)" stroke="rgb(255,255,255)" stroke-width="1" opacity="1" d="M 102.5 215 L 106 215.5 L 102.5 216 L 102.5 215 Z " /></svg>